<svg xmlns="http://www.w3.org/2000/svg" viewBox="0 0 440 790" width="440" height="790" font-family="-apple-system,BlinkMacSystemFont,Segoe UI,Roboto,sans-serif">
  <g transform="translate(60,40)">
    <rect x="0" y="0" width="320" height="640" rx="46" fill="#111114"/>
    <rect x="7" y="7" width="306" height="626" rx="40" fill="#ffffff"/>
    <clipPath id="clip6040"><rect x="7" y="7" width="306" height="626" rx="40"/></clipPath>
    <g clip-path="url(#clip6040)">
      <text x="34" y="42" font-size="13" font-weight="600" fill="#111" font-family="-apple-system,BlinkMacSystemFont,Segoe UI,Roboto,sans-serif">9:41</text>
      <g fill="#111"><rect x="248" y="32" width="14" height="10" rx="2"/><rect x="268" y="30" width="13" height="12" rx="2"/><rect x="287" y="31" width="20" height="11" rx="3" fill="none" stroke="#111" stroke-width="1.5"/><rect x="289" y="33" width="14" height="7" rx="1.5"/></g>
  <rect x="7" y="52" width="306" height="52" fill="#f1f3f4"/>
  <rect x="34" y="64" width="222" height="30" rx="15" fill="#fff" stroke="#dadce0"/>
  <g><rect x="92" y="74" width="9" height="7" rx="1.5" fill="#5f6368"/><path d="M94 74 v-3 a2.5 2.5 0 0 1 5 0 v3" fill="none" stroke="#5f6368" stroke-width="1.4"/></g><text x="152" y="84" font-size="12.5" fill="#3c4043" text-anchor="middle">sunspot.app</text>
  <circle cx="286" cy="70" r="2.6" fill="#5f6368"/><circle cx="286" cy="78" r="2.6" fill="#5f6368"/><circle cx="286" cy="86" r="2.6" fill="#5f6368"/>
  <rect x="7" y="104" width="306" height="529" fill="#fff"/>
  <rect x="30" y="134" width="150" height="18" rx="9" fill="#1c1c1e"/>
  <rect x="30" y="166" width="256" height="10" rx="5" fill="#e5e5ea"/>
  <rect x="30" y="184" width="200" height="10" rx="5" fill="#e5e5ea"/>
  <rect x="30" y="216" width="256" height="120" rx="16" fill="#eef0ff"/>
  <circle cx="86" cy="276" r="26" fill="#4F46E5" opacity="0.35"/>
  <rect x="128" y="256" width="130" height="10" rx="5" fill="#c7ccf5"/>
  <rect x="128" y="276" width="96" height="10" rx="5" fill="#c7ccf5"/>
  <rect x="30" y="354" width="120" height="86" rx="14" fill="#f2f2f7"/>
  <rect x="166" y="354" width="120" height="86" rx="14" fill="#f2f2f7"/>
  <rect x="30" y="458" width="256" height="86" rx="14" fill="#f2f2f7"/>
    </g>
    <rect x="122.0" y="10" width="76" height="22" rx="11" fill="#111114"/>
  </g>
<circle cx="346" cy="118" r="26" fill="none" stroke="#FF3B30" stroke-width="3.5"/><circle cx="346" cy="118" r="26" fill="#FF3B30" opacity="0.08"/>
<g><rect x="108.39999999999999" y="727" width="247.20000000000002" height="30" rx="15" fill="#111114"/>
    <text x="232" y="747" font-size="13" font-weight="600" fill="#fff" text-anchor="middle" font-family="-apple-system,BlinkMacSystemFont,Segoe UI,Roboto,sans-serif">Tap the &#8942; menu, top right</text></g></svg>